<svg id="Layer_1" enable-background="new 0 0 100 100" viewBox="0 0 100 100" xmlns="http://www.w3.org/2000/svg"><g><path d="m97.4962616 12.0710745c-.0830078-.2608643-1.6152344.1896973-1.8762207.237793-2.7309494.6170645-5.367424 1.6027813-7.884758 2.8378878-5.082756 2.4815655-9.6425705 5.9133263-13.9645844 9.5230637-9.4999924 7.9444542-18.1683235 16.8743782-26.0290337 26.4339409l-.0004883-.0007324c-.1896973-.8789062-3.2893028-14.7248421-9.2150803-17.8360481-1.9714355-1.0328331-3.8120079-.9500694-3.8120079-.9500694-2.5412598.1068115-4.7495098 1.6740685-5.7949181 3.2893028-2.3034649 3.5856895-.9741211 7.1252365.3205566 10.4377365 2.5529766 6.5543137 5.1182823 13.0981331 7.6711349 19.6525688.8547363 2.1851807 1.8165283 4.5126953 3.7646446 5.8188477 2.5769043 1.7336426 6.1867638 1.0925293 8.7280235-.6882324 2.5528526-1.7694092 4.2866173-4.453125 5.9969406-7.0540733.9973145-1.5200195 2.0186768-3.0283165 3.039917-4.5360069 3.4201622-5.0112267 6.9827843-9.9272385 10.6868782-14.7481575 3.692627-4.8092003 7.5285568-9.5230637 11.4827805-14.1312141 3.9543457-4.6071739 8.0388107-9.0956955 12.2549973-13.4658089 1.0570068-1.0925293 2.113884-2.1853018 3.1824875-3.2651348.2136233-.2137454 1.5314944-1.2946771 1.4487307-1.5556634z"/><path d="m46.3171043 6.1828957c-5.9133263 0-11.6495247 1.1638174-17.0517426 3.4432344-5.2133751 2.2083721-9.9033127 5.3673058-13.9289446 9.3931818-4.025876 4.025631-7.1840763 8.7038498-9.3931808 13.9289417-2.2795393 5.4016075-3.4432346 11.1374436-3.4432346 17.0508919s1.1638174 11.6495285 3.4432347 17.0517426c2.2091045 5.2250977 5.3673048 9.9041672 9.3931808 13.9296799l-.0006104.000122c4.0255098 4.0256271 8.7039728 7.1840744 13.9290667 9.3930588 5.4030724 2.2805176 11.1382942 3.4433594 17.0517426 3.4433594 5.9133263 0 11.6494064-1.1638184 17.0516243-3.4433594 5.2134933-2.208252 9.9034348-5.3673096 13.9290619-9.3930588 4.0257568-4.0256348 7.184082-8.7039719 9.3931808-13.9290695 2.2803955-5.4029465 3.4432373-11.1382942 3.4432373-17.0516205 0-5.9134483-1.1638184-11.6496506-3.4432373-17.0517464-.2850342-.676754-.5814209-1.3417931-.9029541-1.9946251-.6411057.7364483-1.2822189 1.4727783-1.9233322 2.2082481-1.4370117 1.6740723-2.8734131 3.3845215-4.286499 5.0941124 1.3062744 3.6810303 2.006958 7.6354943 2.006958 11.744011 0 19.4388275-15.8176117 35.2677917-35.2679176 35.2677917-19.4389477 0-35.2679138-15.8174896-35.2679138-35.2677917 0-19.4389496 15.8174925-35.2680397 35.2679138-35.2680397 8.6566086 0 16.6010628 3.135129 22.7400932 8.3360529.65271-.5582275 1.3062744-1.1165771 1.9714355-1.6739483 1.4130859-1.1878662 3.0158691-2.4816875 4.773674-3.8004131-3.669548-3.3488741-7.8492355-6.0202589-12.4330902-7.9675226-5.4030723-2.2803927-11.138298-3.4432335-17.0517464-3.4432335z"/></g></svg>