<svg clip-rule="evenodd" fill-rule="evenodd" height="512" image-rendering="optimizeQuality" shape-rendering="geometricPrecision" text-rendering="geometricPrecision" viewBox="0 0 512 512" width="512" xmlns="http://www.w3.org/2000/svg" xmlns:xodm="http://www.corel.com/coreldraw/odm/2003"><g id="Layer_x0020_1"><path d="m95.59 294.38c-15.89-3.34-30.45-11.09-42.14-22.63-16.09-15.87-24.95-37.16-24.95-59.93 0-21.41 8.03-41.83 22.61-57.49 13.53-14.55 31.55-23.78 51.09-26.26 11.02-34.9 43.54-58.93 80.5-58.93 8.99 0 17.78 1.39 26.2 4.15 5.95-19.73 17.87-37.47 34.03-50.51 18.21-14.69 41.16-22.78 64.6-22.78 56.79 0 102.99 46.2 102.99 102.99 0 8.41-1.02 16.74-3.02 24.83 42.56 4.26 76 40.42 76 84 0 40.6-28.83 74.6-67.09 82.62v-31.22c0-13.32-10.82-24.14-24.14-24.14h-272.54c-13.32 0-24.14 10.82-24.14 24.14zm-12.01-44.08c-1.43 0-2.87-.51-4.02-1.55-10.42-9.42-16.4-22.88-16.4-36.93 0-25.85 20.15-47.64 45.87-49.62l20.36-1.56 5.17-19.75c5.73-21.84 25.52-37.09 48.14-37.09 6.67 0 13.14 1.29 19.22 3.84l31.4 13.16 7.61-33.18c3.44-14.97 11.98-28.5 24.05-38.1 12.06-9.58 27.17-14.86 42.55-14.86 37.68 0 68.33 30.65 68.33 68.32 0 3.32-2.68 6-6 6-3.31 0-6-2.68-6-6 0-31.06-25.27-56.32-56.33-56.32-26.01 0-49.1 18.35-54.9 43.64l-9.21 40.14c-.39 1.72-1.53 3.18-3.1 3.99-1.58.81-3.43.88-5.06.2l-37.98-15.92c-4.6-1.94-9.51-2.91-14.58-2.91-17.17 0-32.19 11.57-36.53 28.13l-6.26 23.89c-.65 2.47-2.79 4.26-5.34 4.46l-24.62 1.89c-19.51 1.49-34.79 18.03-34.79 37.65 0 10.66 4.54 20.87 12.45 28.02 2.46 2.23 2.65 6.02.43 8.48-1.19 1.31-2.82 1.98-4.46 1.98z"/><path d="m271.83 482.21c-3.32 0-6-2.68-6-5.99v-36.36c0-3.31 2.68-6 6-6 3.31 0 6 2.69 6 6v36.35c0 3.32-2.69 6-6 6z"/><path d="m365.65 497.11h-78.93c-3.31 0-6-2.69-6-6 0-3.32 2.69-6 6-6h78.93c3.31 0 6 2.68 6 6 0 3.31-2.69 6-6 6zm-108.71 0h-76.09c-3.31 0-6-2.69-6-6 0-3.32 2.69-6 6-6h76.09c3.31 0 6 2.68 6 6 0 3.31-2.69 6-6 6z"/><path d="m271.83 512c-11.52 0-20.89-9.37-20.89-20.89s9.37-20.9 20.89-20.9 20.89 9.38 20.89 20.9-9.37 20.89-20.89 20.89z"/><path d="m392.27 341.38h-272.54c-6.7 0-12.14-5.44-12.14-12.14v-66.02c0-6.7 5.44-12.14 12.14-12.14h272.54c6.7 0 12.14 5.44 12.14 12.14v66.02c0 6.7-5.44 12.14-12.14 12.14zm-233.29-23.44c-11.97 0-21.71-9.74-21.71-21.71s9.74-21.71 21.71-21.71 21.71 9.74 21.71 21.71-9.74 21.71-21.71 21.71zm209.75-15.71h-100.36c-3.32 0-6-2.68-6-6 0-3.31 2.68-6 6-6h100.36c3.31 0 6 2.69 6 6 0 3.32-2.69 6-6 6zm-155.24 15.71c-11.97 0-21.7-9.74-21.7-21.71s9.73-21.71 21.7-21.71 21.71 9.74 21.71 21.71-9.74 21.71-21.71 21.71zm0-31.42c-5.35 0-9.7 4.36-9.7 9.71s4.35 9.71 9.7 9.71c5.36 0 9.71-4.36 9.71-9.71s-4.35-9.71-9.71-9.71zm-54.51 0c-5.35 0-9.71 4.36-9.71 9.71s4.36 9.71 9.71 9.71 9.71-4.36 9.71-9.71-4.36-9.71-9.71-9.71z"/><path d="m350.61 367.55h-189.22c-3.32 0-6-2.68-6-6v-26.16c0-3.32 2.68-6 6-6h189.22c3.32 0 6 2.68 6 6v26.16c0 3.31-2.68 6-6 6zm-183.22-12h177.22v-14.16h-177.22z"/><path d="m392.27 445.86h-272.54c-6.7 0-12.14-5.45-12.14-12.14v-66.03c0-6.69 5.44-12.14 12.14-12.14h272.54c6.7 0 12.14 5.45 12.14 12.14v66.03c0 6.69-5.44 12.14-12.14 12.14zm-233.29-23.45c-11.97 0-21.71-9.73-21.71-21.7s9.74-21.71 21.71-21.71 21.71 9.74 21.71 21.71-9.74 21.7-21.71 21.7zm209.75-15.7h-100.36c-3.32 0-6-2.69-6-6 0-3.32 2.68-6 6-6h100.36c3.31 0 6 2.68 6 6 0 3.31-2.69 6-6 6zm-155.24 15.7c-11.97 0-21.7-9.73-21.7-21.7s9.73-21.71 21.7-21.71 21.71 9.74 21.71 21.71-9.74 21.7-21.71 21.7zm0-31.41c-5.35 0-9.7 4.35-9.7 9.71 0 5.35 4.35 9.7 9.7 9.7 5.36 0 9.71-4.35 9.71-9.7 0-5.36-4.35-9.71-9.71-9.71zm-54.51 0c-5.35 0-9.71 4.35-9.71 9.71 0 5.35 4.36 9.7 9.71 9.7s9.71-4.35 9.71-9.7c0-5.36-4.36-9.71-9.71-9.71z"/></g></svg>