<svg id="Capa_1" enable-background="new 0 0 512 512" height="512" viewBox="0 0 512 512" width="512" xmlns="http://www.w3.org/2000/svg"><g><path d="m433.89 252.84h63.11c8.28 0 15-6.71 15-15 0-8.28-6.72-15-15-15h-57.15c7.19-45.32 3.85-75.97 3.66-77.62-.68-5.93-4.81-10.89-10.51-12.63-22.79-6.98-42.65-14.06-59.93-21v-37.08h51.51c6.19 17.46 22.87 30 42.42 30 24.81 0 45-20.19 45-45 0-24.82-20.19-45-45-45-19.55 0-36.23 12.54-42.42 30h-66.51c-8.29 0-15 6.71-15 15v39.03c-55.6-26.25-74.03-47.78-75.14-49.12-5.993-8.245-17.862-8.252-23.86 0-1.11 1.34-19.54 22.87-75.14 49.12v-39.03c0-8.29-6.71-15-15-15h-66.51c-6.19-17.46-22.87-30-42.42-30-24.81 0-45 20.18-45 45 0 24.81 20.19 45 45 45 19.55 0 36.23-12.54 42.42-30h51.51v37.08c-17.28 6.94-37.14 14.02-59.93 21-5.7 1.74-9.83 6.7-10.51 12.63-.19 1.65-3.53 32.3 3.66 77.62h-57.15c-8.28 0-15 6.72-15 15 0 8.29 6.72 15 15 15h63.11c3.277 13.647 7.107 26.764 12.21 41.05h-41.21c-8.28 0-15 6.71-15 15 0 8.28 6.72 15 15 15h53.31c13.017 28.782 28.858 54.797 47.61 79.07h-62.61c-6.19-17.46-22.87-30-42.42-30-24.81 0-45 20.19-45 45s20.19 45 45 45c19.55 0 36.23-12.54 42.42-30h88.19c21.13 22.53 45.12 43.22 71.81 61.83 5.161 3.6 12 3.6 17.16 0 26.69-18.61 50.68-39.3 71.81-61.83h88.19c6.19 17.46 22.87 30 42.42 30 24.81 0 45-20.19 45-45s-20.19-45-45-45c-19.55 0-36.23 12.54-42.42 30h-62.61c18.707-24.215 34.563-50.222 47.61-79.07h53.31c8.28 0 15-6.72 15-15 0-8.29-6.72-15-15-15h-41.21c5.097-14.269 8.928-27.386 12.21-41.05zm-95.35 76.84c0 15.08-12.26 27.34-27.34 27.34h-110.4c-15.08 0-27.34-12.26-27.34-27.34v-85.9c0-11.92 7.66-22.07 18.32-25.81v-9.76c0-35.41 28.81-64.22 64.22-64.22s64.22 28.81 64.22 64.22v9.76c10.66 3.74 18.32 13.89 18.32 25.81z"/><path d="m203.46 246.44v80.58h105.08v-80.58zm67.54 45.58c0 8.29-6.72 15-15 15s-15-6.71-15-15v-10.58c0-8.29 6.72-15 15-15s15 6.71 15 15z"/><path d="m290.22 208.21v8.23h-68.44v-8.23c0-18.87 15.35-34.22 34.22-34.22s34.22 15.35 34.22 34.22z"/></g></svg>