<svg id="Capa_1" enable-background="new 0 0 480 480" height="512" viewBox="0 0 480 480" width="512" xmlns="http://www.w3.org/2000/svg"><g><g id="outline_29_"><path d="m310.573 138.509c-18.973-6.778-44.037-10.509-70.573-10.509s-51.6 3.731-70.573 10.509c-27.627 9.867-33.427 22.726-33.427 31.777v29.214c-16.542-2.017-31.627-10.458-42-23.5h2c4.418 0 8-3.582 8-8s-3.582-8-8-8h-16c-.052 0-.1.01-.154.011-4.173-.193-7.79 2.86-8.3 7.006l-6.7 13.405c-2.007 3.936-.443 8.754 3.493 10.761s8.754.443 10.761-3.493c.019-.037.037-.074.056-.112l1.4-2.8c13.393 17.535 33.482 28.702 55.444 30.822v64.8c-21.963 2.122-42.051 13.291-55.443 30.827l-1.4-2.8c-2.007-3.936-6.825-5.5-10.761-3.493-3.893 1.985-5.473 6.726-3.549 10.649l6.7 13.405c.498 4.003 3.898 7.009 7.932 7.012.093 0 .184-.016.277-.019s.161.017.244.017h16c4.418 0 8-3.582 8-8s-3.582-8-8-8h-2c10.413-13.093 25.573-21.546 42.184-23.522 1.163 8.778 8.32 20.113 33.242 29.014 18.974 6.778 44.038 10.51 70.574 10.51s51.6-3.732 70.573-10.508c24.922-8.9 32.079-20.236 33.242-29.014 16.612 1.976 31.772 10.429 42.185 23.522h-2c-4.418 0-8 3.582-8 8s3.582 8 8 8h16c.083 0 .162-.015.244-.017s.184.019.277.019c4.036-.004 7.437-3.013 7.932-7.019l6.7-13.405c2.007-3.936.443-8.754-3.493-10.761s-8.754-.443-10.761 3.493c-.019.037-.037.074-.056.112l-1.4 2.8c-13.393-17.534-33.481-28.702-55.443-30.822v-64.8c21.963-2.122 42.051-13.291 55.443-30.827l1.4 2.8c1.945 3.967 6.738 5.606 10.705 3.661s5.606-6.738 3.661-10.705c-.018-.037-.037-.074-.056-.112l-6.7-13.4c-.51-4.146-4.127-7.199-8.3-7.006-.053 0-.1-.011-.157-.011h-15.996c-4.418 0-8 3.582-8 8s3.582 8 8 8h2c-10.373 13.042-25.458 21.483-42 23.5v-29.214c0-9.051-5.8-21.91-33.427-31.777zm-158.573 96.491c5.491 3.366 11.335 6.118 17.427 8.206 18.973 6.776 44.037 10.508 70.573 10.508s51.6-3.732 70.573-10.508c6.092-2.088 11.936-4.84 17.427-8.206v17.571c0 3.95-5.974 10.7-22.809 16.71-17.29 6.175-40.442 9.576-65.191 9.576s-47.9-3.4-65.191-9.576c-16.835-6.012-22.809-12.76-22.809-16.71zm176-23.571c0 3.95-5.974 10.7-22.809 16.709-17.29 6.175-40.442 9.576-65.191 9.576s-47.9-3.4-65.191-9.576c-16.835-6.012-22.809-12.759-22.809-16.709v-17.571c5.491 3.364 11.335 6.114 17.427 8.2 18.973 6.782 44.037 10.513 70.573 10.513s51.6-3.731 70.573-10.508c6.092-2.086 11.936-4.836 17.427-8.2zm-153.191-57.853c17.291-6.176 40.442-9.576 65.191-9.576s47.9 3.4 65.191 9.576c16.835 6.013 22.809 12.76 22.809 16.71s-5.974 10.7-22.809 16.709c-17.29 6.176-40.442 9.576-65.191 9.576s-47.9-3.4-65.191-9.576c-16.835-6.012-22.809-12.759-22.809-16.709s5.974-10.697 22.809-16.71zm153.191 140.138c0 3.95-5.974 10.7-22.809 16.71-17.291 6.176-40.442 9.576-65.191 9.576s-47.9-3.4-65.191-9.576c-16.835-6.013-22.809-12.76-22.809-16.71v-17.571c5.491 3.366 11.335 6.118 17.427 8.207 18.973 6.775 44.037 10.507 70.573 10.507s51.6-3.732 70.573-10.507c6.092-2.089 11.936-4.841 17.427-8.207z"/><path d="m460 368h-47.056l-5.789-11.578c-1.355-2.71-4.125-4.422-7.155-4.422h-52c-11.04.013-19.987 8.96-20 20v51.5c-16.687-2.036-31.885-10.607-42.261-23.833 4.244 1.23 8.681-1.213 9.911-5.457 1.071-3.695-.639-7.629-4.072-9.365l-16-8c-3.952-1.976-8.757-.374-10.733 3.577l-8 16c-1.98 3.946-.386 8.749 3.56 10.729 3.257 1.634 7.206.859 9.603-1.885 13.273 19.489 34.522 32.069 57.992 34.334v12.4c.013 11.04 8.96 19.987 20 20h112c11.04-.013 19.987-8.96 20-20v-64c-.013-11.04-8.96-19.987-20-20zm4 84c0 2.209-1.791 4-4 4h-112c-2.209 0-4-1.791-4-4v-80c0-2.209 1.791-4 4-4h47.056l5.789 11.578c1.355 2.71 4.125 4.422 7.155 4.422h52c2.209 0 4 1.791 4 4z"/><path d="m20 472h112c11.04-.013 19.987-8.96 20-20v-12.4c23.47-2.265 44.72-14.846 57.992-34.335 2.908 3.322 7.959 3.657 11.28.748 2.737-2.397 3.511-6.339 1.883-9.592l-8-16c-1.976-3.951-6.781-5.553-10.733-3.577l-16 8c-3.942 1.995-5.52 6.809-3.524 10.751 1.737 3.431 5.669 5.141 9.362 4.071-10.375 13.227-25.573 21.798-42.26 23.834v-35.5c-.013-11.04-8.96-19.987-20-20h-47.056l-5.789-11.578c-1.355-2.71-4.125-4.422-7.155-4.422h-52c-11.04.013-19.987 8.96-20 20v80c.013 11.04 8.96 19.987 20 20zm-4-100c0-2.209 1.791-4 4-4h47.056l5.789 11.578c1.355 2.71 4.125 4.422 7.155 4.422h52c2.209 0 4 1.791 4 4v64c0 2.209-1.791 4-4 4h-112c-2.209 0-4-1.791-4-4z"/><path d="m460 24h-47.056l-5.789-11.578c-1.355-2.71-4.125-4.422-7.155-4.422h-52c-11.04.013-19.987 8.96-20 20v28.4c-23.469 2.265-44.717 14.844-57.99 34.332-2.925-3.312-7.98-3.626-11.292-.701-2.711 2.394-3.479 6.308-1.873 9.548l8 16c1.971 3.95 6.771 5.554 10.721 3.583.004-.002.008-.004.012-.006l16-8c3.942-1.995 5.52-6.809 3.525-10.751-1.737-3.431-5.669-5.141-9.363-4.071 10.375-13.227 25.573-21.799 42.26-23.834v35.5c.013 11.04 8.96 19.987 20 20h112c11.04-.013 19.987-8.96 20-20v-64c-.013-11.04-8.96-19.987-20-20zm4 84c0 2.209-1.791 4-4 4h-112c-2.209 0-4-1.791-4-4v-80c0-2.209 1.791-4 4-4h47.056l5.789 11.578c1.355 2.71 4.125 4.422 7.155 4.422h52c2.209 0 4 1.791 4 4z"/><path d="m20 128h112c11.04-.013 19.987-8.96 20-20v-35.5c16.687 2.036 31.885 10.607 42.261 23.833-4.244-1.23-8.681 1.213-9.911 5.456-1.071 3.695.639 7.629 4.072 9.366l16 8c3.947 1.978 8.749.382 10.727-3.565.002-.004.004-.008.006-.012l8-16c1.962-3.959.342-8.759-3.617-10.72-3.24-1.605-7.155-.838-9.548 1.873-13.273-19.487-34.521-32.067-57.99-34.331v-12.4c-.013-11.04-8.96-19.987-20-20h-47.056l-5.789-11.578c-1.355-2.71-4.125-4.422-7.155-4.422h-52c-11.04.013-19.987 8.96-20 20v80c.013 11.04 8.96 19.987 20 20zm-4-100c0-2.209 1.791-4 4-4h47.056l5.789 11.578c1.355 2.71 4.125 4.422 7.155 4.422h52c2.209 0 4 1.791 4 4v64c0 2.209-1.791 4-4 4h-112c-2.209 0-4-1.791-4-4z"/></g></g></svg>