<?xml version="1.0" encoding="UTF-8"?>
<svg xmlns="http://www.w3.org/2000/svg" id="Layer_3" data-name="Layer 3" viewBox="0 0 64 64" width="512" height="512"><path d="M32,20A12,12,0,1,0,44,32,12.013,12.013,0,0,0,32,20Zm0,22A10,10,0,1,1,42,32,10.011,10.011,0,0,1,32,42Z"/><path d="M31.929,27.628A1,1,0,0,0,31,27H29a1,1,0,0,0-.929.628l-2,5A1.012,1.012,0,0,0,26,33v4h2V34h4v3h2V33a1.012,1.012,0,0,0-.071-.372ZM29.677,29h.646l1.2,3H28.477Z"/><rect x="35" y="27" width="2" height="10"/><path d="M58,11a5.015,5.015,0,1,0-4.167-2.247l-6.984,6.984-1.414-1.415a1,1,0,0,0-1.307-.093l-2.142,1.606c-.5-.312-1.025-.592-1.553-.854l3.274-3.274A1,1,0,0,0,44,11V8.858a4,4,0,1,0-2,0v1.728l-3.555,3.555a18.834,18.834,0,0,0-2.076-.629l-.379-2.654A1,1,0,0,0,35,10H29a1,1,0,0,0-.99.858l-.379,2.654a18.834,18.834,0,0,0-2.076.629L22,10.586V8.858a4,4,0,1,0-2,0V11a1,1,0,0,0,.293.707l3.274,3.274c-.528.262-1.049.542-1.553.854l-2.142-1.606a1,1,0,0,0-1.307.093l-1.414,1.415L10.167,8.753a5.015,5.015,0,1,0-1.414,1.414l6.984,6.984-1.415,1.414a1,1,0,0,0-.093,1.307l1.606,2.141a19.051,19.051,0,0,0-.947,1.756l-3.476-3.476A1,1,0,0,0,10.705,20H8.858a4,4,0,1,0,0,2h1.433l3.771,3.771a18.747,18.747,0,0,0-.55,1.86l-2.654.379A1,1,0,0,0,10,29v6a1,1,0,0,0,.858.99l2.654.379a18.747,18.747,0,0,0,.55,1.86L10.291,42H8.858a4,4,0,1,0,0,2h1.847a1,1,0,0,0,.707-.293l3.476-3.476a19.035,19.035,0,0,0,.947,1.755l-1.606,2.142a1,1,0,0,0,.093,1.307l1.415,1.414L8.753,53.833a5.015,5.015,0,1,0,1.414,1.414l6.984-6.984,1.414,1.415a1,1,0,0,0,1.307.093l2.141-1.606c.5.312,1.025.592,1.554.854l-3.274,3.274A1,1,0,0,0,20,53v2.142a4,4,0,1,0,2,0V53.414l3.555-3.555a18.9,18.9,0,0,0,2.076.629l.379,2.654A1,1,0,0,0,29,54h6a1,1,0,0,0,.99-.858l.379-2.654a18.9,18.9,0,0,0,2.076-.629L42,53.414v1.728a4,4,0,1,0,2,0V53a1,1,0,0,0-.293-.707l-3.274-3.274c.529-.262,1.049-.542,1.554-.854l2.141,1.606a1,1,0,0,0,1.307-.093l1.414-1.415,6.984,6.984a5.015,5.015,0,1,0,1.414-1.414l-6.984-6.984,1.415-1.414a1,1,0,0,0,.093-1.307l-1.606-2.142c.312-.5.592-1.025.854-1.553l3.274,3.274A1,1,0,0,0,53,44h2.142a4,4,0,1,0,0-2H53.414l-3.555-3.555a18.9,18.9,0,0,0,.629-2.076l2.654-.379A1,1,0,0,0,54,35V29a1,1,0,0,0-.858-.99l-2.654-.379a18.9,18.9,0,0,0-.629-2.076L53.414,22h1.728a4,4,0,1,0,0-2H53a1,1,0,0,0-.707.293l-3.274,3.274c-.262-.529-.542-1.049-.854-1.554l1.606-2.141a1,1,0,0,0-.093-1.307l-1.415-1.414,6.984-6.984A4.969,4.969,0,0,0,58,11ZM41,5a2,2,0,1,1,2,2A2,2,0,0,1,41,5ZM19,5a2,2,0,1,1,2,2A2,2,0,0,1,19,5ZM6,9A3,3,0,1,1,9,6,3,3,0,0,1,6,9ZM5,23a2,2,0,1,1,2-2A2,2,0,0,1,5,23ZM5,45a2,2,0,1,1,2-2A2,2,0,0,1,5,45ZM6,61a3,3,0,1,1,3-3A3,3,0,0,1,6,61Zm17-2a2,2,0,1,1-2-2A2,2,0,0,1,23,59Zm22,0a2,2,0,1,1-2-2A2,2,0,0,1,45,59Zm13-4a3,3,0,1,1-3,3A3,3,0,0,1,58,55Zm1-14a2,2,0,1,1-2,2A2,2,0,0,1,59,41Zm0-22a2,2,0,1,1-2,2A2,2,0,0,1,59,19ZM52,29.867v4.266l-2.484.355a1,1,0,0,0-.84.8,16.824,16.824,0,0,1-2.559,6.186,1,1,0,0,0,.03,1.158l1.5,2.005L44.634,47.65l-2-1.5a1,1,0,0,0-1.158-.03,16.835,16.835,0,0,1-6.187,2.559,1,1,0,0,0-.8.84L34.133,52H29.867l-.355-2.484a1,1,0,0,0-.8-.84,16.835,16.835,0,0,1-6.187-2.559,1,1,0,0,0-1.158.03l-2,1.5L16.35,44.634l1.5-2.005a1,1,0,0,0,.03-1.158,16.824,16.824,0,0,1-2.559-6.186,1,1,0,0,0-.84-.8L12,34.133V29.867l2.484-.355a1,1,0,0,0,.84-.8,16.835,16.835,0,0,1,2.559-6.187,1,1,0,0,0-.03-1.158l-1.5-2,3.016-3.016,2,1.5a1,1,0,0,0,1.158.03,16.827,16.827,0,0,1,6.186-2.559,1,1,0,0,0,.8-.84L29.867,12h4.266l.355,2.484a1,1,0,0,0,.8.84,16.827,16.827,0,0,1,6.186,2.559,1,1,0,0,0,1.158-.03l2.005-1.5,3.016,3.016-1.5,2a1,1,0,0,0-.03,1.158,16.835,16.835,0,0,1,2.559,6.187,1,1,0,0,0,.84.8ZM58,3a3,3,0,1,1-3,3A3,3,0,0,1,58,3Z"/></svg>
