<svg id="Layer_1" viewBox="0 0 64 64" xmlns="http://www.w3.org/2000/svg" data-name="Layer 1"><path d="m16.8300171 59.4899902h43.789978c.5499878 0 1-.4400024 1-1 0-.5499878-.4500122-1-1-1h-2.210022v-30.0300293h2.5900269c.3900146 0 .75-.2299805.9099731-.5799561.1600342-.3600464.1000366-.7800293-.1599731-1.0700073l-8.6799927-9.9500122c-.3800049-.4299927-1.1300049-.4299927-1.5100098 0l-8.6799927 9.9500122c-.2600098.289978-.3200073.7099609-.1600342 1.0700073.1600342.3499756.5200195.5799561.9100342.5799561h2.5899658v30.0300293h-1.5199585v-24.0599976c0-.5499878-.4500122-1-1-1h-10.2000122c-.5499878 0-1 .4500122-1 1v24.0599976h-1.3800049v-17.3800049c0-.5499878-.4500122-1-1-1h-10.2000122c-.5599976 0-1 .4500122-1 1v17.3800049h-1.0899658v-10.4100342c0-.5599976-.4500122-1-1-1h-10.2000121c-.5599976 0-1 .4400024-1 1v10.4100342h-2.6300049c-.5499878 0-1 .4500122-1 1 0 .5599976.4500122 1 1 1z"/><path d="m16.960022 34.4299927c8.25 0 14.9599609-6.710022 14.9599609-14.960022s-6.7099609-14.9599609-14.9599609-14.9599609-14.960022 6.7099609-14.960022 14.9599609 6.710022 14.960022 14.960022 14.960022zm.7799683-13.960022h-1.5599976c-2.1199951 0-3.8399658-1.7199707-3.8399658-3.8399658 0-2.0500488 1.5999756-3.7300415 3.6199951-3.8400269v-1.5899658c0-.5500488.4499512-1 1-1 .5599976 0 1 .4499512 1 1v1.5899658c2.0199585.1099854 3.6300049 1.789978 3.6300049 3.8400269 0 .5499878-.4500122 1-1 1-.5599976 0-1-.4500122-1-1 0-1.0200195-.8300171-1.8500366-1.8500366-1.8500366h-1.5599976c-1.0100098 0-1.8399658.8300171-1.8399658 1.8500366 0 1.0100098.8299561 1.8399658 1.8399658 1.8399658h1.5599976c2.1199951 0 3.8500366 1.7300415 3.8500366 3.8400269 0 2.0499878-1.6100464 3.7299805-3.6300049 3.8399658v1.5900269c0 .5599976-.4400024 1-1 1-.5500488 0-1-.4400024-1-1v-1.5900269c-2.0200195-.1099854-3.6199951-1.789978-3.6199951-3.8399658 0-.5499878.4499512-1 1-1 .5499878 0 1 .4500122 1 1 0 1.0199585.8299561 1.8499756 1.8399658 1.8499756h1.5599976c1.0200195 0 1.8500366-.8300171 1.8500366-1.8499756 0-1.0100098-.8300171-1.8400269-1.8500366-1.8400269z"/></svg>