<svg id="Glyph" height="512" viewBox="0 0 32 32" width="512" xmlns="http://www.w3.org/2000/svg"><path d="m4 18c0-1.6543 1.3457-3 3-3s3 1.3457 3 3h2s0-3.26028 0-3.26951c0-.74716.8609-1.23856 1.50537-.8633.6497.37831 1.49462-.11457 1.49463-.86718.00001-.72631-.85632-1.24281-1.49452-.86726-.6519.38361-1.50548-.11033-1.50548-.86322v-5.26953h-9c-1.6543 0-3 1.3457-3 3v9z"/><path d="m12 28c-1.6543 0-3-1.3457-3-3s1.3457-3 3-3v-2s-3.26881 0-3.27002 0c-.74596 0-1.2512-.84201-.86283-1.5058.37505-.64101-.11015-1.49414-.86708-1.4942-.72424-.00005-1.24091.85774-.8673 1.49408.38403.65406-.10608 1.50592-.86275 1.50592h-5.27002v9c0 1.6543 1.3457 3 3 3h9z"/><path d="m22 20c0 1.6543-1.3457 3-3 3s-3-1.3457-3-3h-2v3.26953c0 .74927-.85903 1.24046-1.50535.8633-.6459-.37692-1.49463.11356-1.49465.86714-.00002.72901.85515 1.24361 1.49461.86723.64848-.38169 1.50539.11773 1.50539.86327v5.26953h9c1.6543 0 3-1.3457 3-3v-9z"/><path d="m29 0h-10c-.55273 0-1 .44727-1 1v4.26951c0 .75811.85234 1.24466 1.50582.86332.65434-.38183 1.49415.12238 1.49418.86714.00003.73001-.85363 1.24543-1.49406.86727-.64944-.38349-1.50594.11774-1.50594.86323v4.26953c0 .55273.44727 1 1 1h3c0 1.6543 1.3457 3 3 3s3-1.3457 3-3h3c.55273 0 1-.44727 1-1v-10c0-1.6543-1.3457-3-3-3z"/></svg>