<svg id="Layer_1" enable-background="new 0 0 64 64" height="512" viewBox="0 0 64 64" width="512" xmlns="http://www.w3.org/2000/svg"><path d="m63.11 34.56c-.99-1.53-2.67-2.44-4.5-2.44-1.03 0-2.04.3-2.91.86-2.26 1.47-3.04 4.36-1.94 6.74l-6.17 4.19c-1.29-1.82-3.04-3.3-5.09-4.24l5.15-14.64c1.08.31 2.22.47 3.39.47 2.84 0 5.48-.93 7.6-2.52.05-.04.09-.07.13-.11 3.04-2.33 5.01-5.99 5.01-10.13 0-7.02-5.72-12.74-12.74-12.74-5.29 0-9.84 3.23-11.77 7.83l-3.45-1.44c.21-1.14.04-2.31-.51-3.36-.64-1.27-1.75-2.2-3.1-2.64-.53-.18-1.09-.26-1.64-.26-.83 0-1.67.2-2.43.58-1.27.65-2.2 1.75-2.64 3.11s-.32 2.79.33 4.06 1.75 2.21 3.11 2.65c.53.17 1.08.26 1.63.26.84 0 1.67-.21 2.43-.59 1.01-.52 1.81-1.33 2.32-2.32l3.44 1.43c-.32 1.09-.48 2.24-.48 3.43 0 1.5.26 2.93.73 4.26l-11.86 5.17c-2.1-4.15-6.41-7-11.37-7-1.63 0-3.21.31-4.65.88l-2.92-5.99c.97-.58 1.72-1.47 2.16-2.55.55-1.33.54-2.79-.01-4.12-.82-2.01-2.78-3.31-4.96-3.31-.71 0-1.41.14-2.07.42-2.75 1.13-4.05 4.3-2.9 7.04.55 1.33 1.59 2.37 2.92 2.91.65.27 1.35.41 2.05.41.46 0 .92-.06 1.37-.18l2.94 6.02c-3.97 2.17-6.68 6.38-6.68 11.2 0 4.12 1.97 7.8 5.02 10.13.04.04.09.08.14.11 2.12 1.58 4.75 2.51 7.59 2.51 2.83 0 5.46-.93 7.58-2.51.06-.03.11-.07.16-.12.17-.13.33-.26.48-.4l3.95 4.85c-2.17 2.29-3.51 5.38-3.51 8.78 0 .81.08 1.6.23 2.38l-4.83 1.06c-.76-2.09-2.76-3.54-5.04-3.54-.35 0-.7.03-1.05.1-1.4.28-2.61 1.09-3.41 2.29-.79 1.19-1.08 2.62-.8 4.01.51 2.51 2.71 4.32 5.26 4.32.36 0 .7-.04 1.05-.11 1.4-.28 2.62-1.09 3.41-2.28.65-.97.96-2.11.89-3.26l4.91-1.07c.8 2.5 2.36 4.66 4.39 6.21 0 0 0 0 .01.01.06.04.12.09.18.13 2.12 1.57 4.73 2.49 7.55 2.49 2.83 0 5.46-.93 7.58-2.51.06-.03.11-.07.16-.12 3.04-2.33 5-5.99 5-10.12 0-2.17-.54-4.22-1.51-6.01l6.2-4.21c1.01 1.14 2.45 1.8 4.01 1.8 1.03 0 2.04-.31 2.91-.87 1.2-.77 2.02-1.98 2.32-3.38.31-1.39.04-2.82-.75-4.01zm-22.41 19.57c.99-.93 1.6-2.25 1.6-3.71 0-2.81-2.3-5.11-5.11-5.11-2.82 0-5.11 2.3-5.11 5.11 0 1.46.61 2.77 1.6 3.71-2.47.83-3.91 2.54-4.32 5.07-1.4-1.37-2.44-3.11-2.96-5.05 0-.03-.01-.06-.01-.08-.01-.05-.02-.09-.04-.13-.01-.01-.01-.02-.01-.03-.21-.85-.32-1.74-.32-2.66 0-6.16 5.01-11.18 11.18-11.18 1.43 0 2.8.27 4.06.76 0 0 .01.01.01.01h.01c2.28.9 4.19 2.53 5.46 4.59.01.01.02.02.02.03 1.02 1.68 1.61 3.67 1.61 5.79 0 3.11-1.28 5.92-3.34 7.96-.4-2.54-1.86-4.25-4.33-5.08zm-29.6-36.37c1.43-.66 3.01-1.03 4.69-1.03 4.6 0 8.55 2.79 10.27 6.76v.02c0 .01.01.01.01.02.58 1.35.9 2.83.9 4.38 0 3.11-1.28 5.92-3.34 7.96-.4-2.54-1.85-4.24-4.33-5.08.99-.92 1.6-2.24 1.6-3.7 0-2.82-2.3-5.11-5.11-5.11-2.82 0-5.11 2.29-5.11 5.11 0 1.46.61 2.77 1.6 3.71-2.47.83-3.91 2.53-4.32 5.06-2.06-2.02-3.34-4.83-3.34-7.95-.01-4.49 2.66-8.37 6.48-10.15zm39.94-16.19c6.15 0 11.17 5.01 11.17 11.18 0 3.1-1.28 5.92-3.33 7.95-.41-2.54-1.86-4.23-4.33-5.06.99-.93 1.6-2.25 1.6-3.71 0-2.82-2.3-5.11-5.11-5.11-2.82 0-5.11 2.29-5.11 5.11 0 1.46.61 2.77 1.6 3.71-2.47.83-3.91 2.53-4.32 5.06-1.04-1.01-1.88-2.23-2.46-3.59v-.01c-.56-1.34-.88-2.8-.88-4.35 0-1.25.21-2.45.58-3.57.02-.05.03-.1.05-.15 1.53-4.34 5.68-7.46 10.54-7.46zm-25.89 34.97c2.1-2.27 3.38-5.3 3.38-8.63 0-1.51-.26-2.95-.74-4.29 0 0 0 0 0-.01l11.85-5.17c.87 1.74 2.14 3.26 3.68 4.42.03.04.08.07.12.11.84.62 1.75 1.15 2.73 1.55l-5.14 14.58c-1.22-.39-2.51-.59-3.84-.59-3.06 0-5.87 1.09-8.08 2.89z"/></svg>