<svg clip-rule="evenodd" fill-rule="evenodd" height="1.707in" image-rendering="optimizeQuality" shape-rendering="geometricPrecision" text-rendering="geometricPrecision" viewBox="0 0 1706.66 1706.66" width="1.707in" xmlns="http://www.w3.org/2000/svg" xmlns:xodm="http://www.corel.com/coreldraw/odm/2003"><g id="Layer_x0020_1"><g id="_745563000"><path d="m329.09 777.15c-5.44 0-10.73-1.97-14.88-5.56-4.56-3.95-7.34-9.54-7.77-15.55l-6.88-96.95c-7.74-2.19-15.4-4.74-22.9-7.64l-63.69 73.43c-8.22 9.49-22.56 10.49-32.04 2.28l-100.34-87.03c-4.56-3.95-7.34-9.54-7.77-15.55-.43-6 1.56-11.93 5.5-16.49l63.7-73.44c-3.95-7.04-7.56-14.25-10.82-21.59l-96.95 6.89c-6.04.42-11.95-1.55-16.49-5.5-4.56-3.95-7.34-9.54-7.77-15.55l-9.41-132.49c-.89-12.52 8.53-23.37 21.05-24.26l96.95-6.89c2.19-7.75 4.74-15.39 7.65-22.9l-73.44-63.69c-4.56-3.95-7.34-9.54-7.77-15.55-.43-6 1.56-11.94 5.5-16.49l87.03-100.33c8.22-9.49 22.56-10.49 32.04-2.27l73.43 63.69c7.04-3.93 14.25-7.54 21.6-10.8l-6.89-96.95c-.89-12.5 8.53-23.37 21.05-24.26l132.49-9.42c6.03-.46 11.95 1.56 16.49 5.5 4.56 3.95 7.34 9.54 7.77 15.55l6.89 96.95c7.74 2.2 15.4 4.75 22.91 7.64l63.69-73.43c3.95-4.56 9.54-7.34 15.55-7.77 6.09-.48 11.94 1.54 16.49 5.5l100.34 87.03c4.56 3.95 7.34 9.54 7.77 15.55.43 6-1.55 11.93-5.5 16.49l-63.69 73.43c3.94 7.03 7.54 14.25 10.8 21.6l96.95-6.88c12.54-.9 23.37 8.53 24.26 21.05l9.41 132.49c.89 12.52-8.54 23.37-21.05 24.26l-96.95 6.89c-2.19 7.74-4.74 15.38-7.64 22.9l73.43 63.7c9.48 8.22 10.49 22.56 2.28 32.04l-87.06 100.32c-3.95 4.56-9.55 7.34-15.55 7.77-6.05.44-11.95-1.56-16.49-5.5l-73.43-63.69c-7.04 3.95-14.25 7.56-21.6 10.81l6.88 96.93c.88 12.52-8.53 23.38-21.05 24.26l-132.49 9.41c-.53.04-1.07.07-1.59.07zm34.39-204.7-1.68-.02c-90.12-.89-162.7-74.62-161.81-164.35.88-88.84 74.18-161.12 163.38-161.12l1.66.02c90.11.89 162.7 74.62 161.81 164.35-.88 88.86-74.16 161.12-163.37 161.12zm1.11-280.05c-65.62 0-118.56 52.1-119.18 116.15-.63 64.68 51.79 117.84 116.85 118.49h1.22c64.4 0 117.32-52.1 117.97-116.15.63-64.7-51.8-117.85-116.86-118.49z"/><path d="m888.03 1475.98c-.03 0-.06 0-.08 0-12.54-.04-22.69-10.25-22.63-22.79l1.23-341.74c.04-12.54 10.28-22.26 22.79-22.63 12.54.04 22.69 10.25 22.63 22.8l-1.23 341.74c-.04 12.52-10.2 22.63-22.71 22.63zm534.31-99.35h-364.65c-12.54 0-22.71-10.17-22.71-22.71v-242.39c0-12.54 10.17-22.71 22.71-22.71s22.71 10.17 22.71 22.71v219.68h341.95c12.54 0 22.71 10.17 22.71 22.71s-10.18 22.71-22.72 22.71z"/><path d="m719.5 1376.63h-364.66c-12.54 0-22.71-10.17-22.71-22.71s10.17-22.71 22.71-22.71h341.94v-219.68c0-12.54 10.17-22.71 22.71-22.71s22.71 10.17 22.71 22.71v242.39c.01 12.54-10.17 22.71-22.7 22.71z"/><path d="m257.61 1473.86c-66.15 0-119.96-53.8-119.96-119.94s53.81-119.94 119.96-119.94c66.14 0 119.94 53.8 119.94 119.94 0 66.15-53.8 119.94-119.94 119.94z"/><path d="m1519.59 1473.86c-66.15 0-119.94-53.8-119.94-119.94s53.8-119.94 119.94-119.94 119.94 53.8 119.94 119.94c0 66.15-53.81 119.94-119.94 119.94z"/><path d="m887.52 1670.46c-66.14 0-119.94-53.8-119.94-119.94s53.8-119.94 119.94-119.94 119.94 53.8 119.94 119.94-53.81 119.94-119.94 119.94z"/><path d="m1419.58 1134.24h-1094.2c-158.01 0-286.57-128.56-286.57-286.57 0-52.83 14.02-103.27 40.3-147.05l71.24 61.79c28.81 24.99 72.88 21.86 97.87-6.95l10.53-12.14 1.14 16.03c1.3 18.38 9.85 35.49 23.8 47.54 12.61 10.91 28.74 16.92 45.41 16.92 3.29 0 2.99-.05 4.9-.19l132.49-9.41c38.04-2.7 66.99-36.07 64.29-74.11l-1.14-16.05 12.16 10.55c13.93 12.07 32.06 18.13 50.45 16.8 18.32-1.33 35.37-9.85 47.41-23.73l87.06-100.32c25-28.8 21.87-72.89-6.94-97.88l-12.16-10.55 16.06-1.14c38.04-2.7 66.99-36.07 64.29-74.12l-5.46-76.8c12.31 3.53 24.4 7.9 36.25 13.12 47.54-121.47 166.85-204.23 298.96-204.23 102.79 0 196.77 47.41 257.81 130.06 55.17 74.69 75.13 166.35 56.55 255.57 152.25 6.56 274.07 132.46 274.07 286.3 0 158-128.54 286.56-286.56 286.56zm0-106.17h-1094.2c-12.54 0-22.71-10.17-22.71-22.71s10.17-22.71 22.71-22.71h1094.2c74.43 0 134.98-60.56 134.98-134.99 0-77.33-66.04-139.69-143.72-134.67l-153.35 9.67c-7.43.46-14.64-2.74-19.26-8.61-4.63-5.85-6.06-13.61-3.87-20.74l45.18-146.83c15.88-51.64 6.43-106.39-25.93-150.2s-81.89-68.93-135.91-68.93c-74.46 0-141.2 49.79-162.32 121.06-3.57 12.02-16.22 18.84-28.23 15.33-12.03-3.57-18.87-16.2-15.31-28.23 26.78-90.44 111.43-153.59 205.86-153.59 68.57 0 131.43 31.85 172.43 87.37 41.01 55.52 52.98 124.97 32.8 190.53l-35.51 115.43 120.52-7.6c3.84-.24 7.73-.39 11.61-.39 99.46 0 180.4 80.92 180.4 180.4.02 99.49-80.9 180.41-180.37 180.41z"/></g></g></svg>