<svg id="Layer_1" viewBox="0 0 512 512" xmlns="http://www.w3.org/2000/svg" data-name="Layer 1"><path d="m492.722 194.536h-97.548c-6.241 0-11.319 5.078-11.319 11.319v40.774h-29.637c-.266-7.023-5.477-12.68-13.452-14.493l-11.734-2.669c-1.019-2.954-2.217-5.845-3.589-8.655l6.413-10.187c4.472-7.105 4.035-15.024-1.114-20.174l-10.523-10.523c-5.149-5.149-13.069-5.585-20.174-1.113l-10.192 6.415c-2.81-1.371-5.7-2.57-8.649-3.587l-2.67-11.737c-1.862-8.188-7.77-13.478-15.053-13.478h-14.881c-7.282 0-13.19 5.29-15.053 13.478l-2.669 11.737c-2.951 1.018-5.841 2.216-8.65 3.587l-10.191-6.415c-7.105-4.472-15.024-4.035-20.175 1.114l-10.522 10.522c-5.15 5.15-5.587 13.069-1.114 20.174l6.414 10.19c-1.371 2.809-2.57 5.7-3.588 8.651l-11.734 2.669c-7.976 1.813-13.188 7.47-13.454 14.493h-29.69v-40.774c0-6.241-5.078-11.319-11.319-11.319h-40.774v-119.814h120.363c3.926 29.365 29.123 52.093 59.544 52.093 33.135 0 60.092-26.958 60.092-60.093s-26.957-60.092-60.092-60.092c-30.422 0-55.618 22.728-59.544 52.092h-128.363c-4.418 0-8 3.582-8 8v127.814h-40.774c-6.241 0-11.319 5.078-11.319 11.319v97.548c0 6.241 5.078 11.319 11.319 11.319h97.547c6.241 0 11.319-5.078 11.319-11.319v-40.774h29.69c.266 7.023 5.478 12.68 13.453 14.493l11.734 2.669c1.018 2.954 2.217 5.845 3.588 8.655l-6.412 10.186c-4.474 7.106-4.037 15.025 1.113 20.175l10.522 10.522c5.148 5.148 13.066 5.586 20.175 1.114l10.191-6.415c2.81 1.371 5.7 2.57 8.649 3.587l2.669 11.738c1.862 8.188 7.771 13.478 15.053 13.478h14.881c7.283 0 13.191-5.291 15.053-13.479l2.668-11.733c2.954-1.018 5.845-2.217 8.656-3.588l10.187 6.412c7.106 4.474 15.025 4.036 20.174-1.114l10.523-10.523c5.148-5.149 5.585-13.068 1.113-20.174l-6.415-10.192c1.371-2.81 2.569-5.699 3.587-8.649l11.737-2.67c7.976-1.813 13.187-7.47 13.453-14.493h29.637v40.774c0 6.241 5.078 11.319 11.319 11.319h40.774v119.814h-120.363c-3.926-29.364-29.123-52.092-59.544-52.092-33.135 0-60.093 26.958-60.093 60.092s26.958 60.093 60.093 60.093c30.422 0 55.618-22.728 59.544-52.093h128.363c4.418 0 8-3.582 8-8v-127.814h40.774c6.241 0 11.319-5.078 11.319-11.319v-97.548c0-6.241-5.078-11.319-11.319-11.319zm-202.183 60.092c0 19.023-15.476 34.499-34.498 34.499s-34.499-15.476-34.499-34.499 15.476-34.497 34.499-34.497 34.498 15.476 34.498 34.497z"/></svg>