<svg id="Layer_1" enable-background="new 0 0 512 512" height="512" viewBox="0 0 512 512" width="512" xmlns="http://www.w3.org/2000/svg"><path d="m27 478.3h458v-38.1h-458zm171.6-395.7c-3.3 0-6-2.7-6-6s2.7-6 6-6h15.9c3.3 0 6 2.7 6 6s-2.7 6-6 6zm44.8 0c-3.3 0-6-2.7-6-6s2.7-6 6-6h15.9c3.3 0 6 2.7 6 6s-2.7 6-6 6zm-44.8 42.1c-3.3 0-6-2.7-6-6s2.7-6 6-6h15.9c3.3 0 6 2.7 6 6s-2.7 6-6 6zm44.8 0c-3.3 0-6-2.7-6-6s2.7-6 6-6h15.9c3.3 0 6 2.7 6 6s-2.7 6-6 6zm-89.5 0c-3.3 0-6-2.7-6-6s2.7-6 6-6h15.9c3.3 0 6 2.7 6 6s-2.7 6-6 6zm44.7 42.1c-3.3 0-6-2.7-6-6s2.7-6 6-6h15.9c3.3 0 6 2.7 6 6s-2.7 6-6 6zm44.8 0c-3.3 0-6-2.7-6-6s2.7-6 6-6h15.9c3.3 0 6 2.7 6 6s-2.7 6-6 6zm-89.5 0c-3.3 0-6-2.7-6-6s2.7-6 6-6h15.9c3.3 0 6 2.7 6 6s-2.7 6-6 6zm44.7 42.1c-3.3 0-6-2.7-6-6s2.7-6 6-6h15.9c3.3 0 6 2.7 6 6s-2.7 6-6 6zm44.8 0c-3.3 0-6-2.7-6-6s2.7-6 6-6h15.9c3.3 0 6 2.7 6 6s-2.7 6-6 6zm-89.5 0c-3.3 0-6-2.7-6-6s2.7-6 6-6h15.9c3.3 0 6 2.7 6 6s-2.7 6-6 6zm0 42.1c-3.3 0-6-2.7-6-6s2.7-6 6-6h15.9c3.3 0 6 2.7 6 6s-2.7 6-6 6zm0 42.1c-3.3 0-6-2.7-6-6s2.7-6 6-6h15.9c3.3 0 6 2.7 6 6s-2.7 6-6 6zm181.8-84.6c-3.3 0-6-2.7-6-6s2.7-6 6-6h22.8c3.3 0 6 2.7 6 6s-2.7 6-6 6zm8.9 42.3c-3.3 0-6-2.7-6-6s2.7-6 6-6h13.9c3.3 0 6 2.7 6 6s-2.7 6-6 6zm-8.9-84.5c-3.3 0-6-2.7-6-6s2.7-6 6-6h22.8c3.3 0 6 2.7 6 6s-2.7 6-6 6zm73 132c-16.5 0-29.8 13.4-29.8 29.8 0 16.5 13.4 29.8 29.8 29.8s29.8-13.4 29.8-29.8-13.4-29.8-29.8-29.8zm-130.2 58.1h-45.1c-28.5 0-52 23.4-52 52v19.8h149v-19.8c.1-28.6-23.3-52-51.9-52zm-22.5-91.3c-21.1 0-38.2 17.1-38.2 38.2s17.1 38.2 38.2 38.2 38.2-17.1 38.2-38.2-17.1-38.2-38.2-38.2zm-152.7 33.2c-16.5 0-29.8 13.4-29.8 29.8 0 16.5 13.4 29.8 29.8 29.8s29.8-13.4 29.8-29.8c.1-16.4-13.3-29.8-29.8-29.8zm26.1 62.6c19 2.8 34.9 15.8 41.7 33.4 6-26.8 28.9-47.1 56.5-49.6-25.8-17.8-29.3-54.7-7-76.9 19.7-19.7 51.6-19.6 71.2.2v-234.3h-85.1c-46.8 0-85.1 38.3-85.1 85.1v171.6c27.5 13.4 32 51.2 7.8 70.5zm-7.8 11.4h-36.5c-22.5 0-41 18.5-41 41v14.9h118.5v-14.9c0-22.5-18.5-41-41-41zm219.3 22c6.8-17.6 22.7-30.6 41.7-33.4-24.2-19.3-19.8-57.1 7.9-70.4v-162.7h-86.8v151.5c0 1.6-.6 3-1.6 4.1 9.6 22.1 2 47.8-17.7 61.3 27.7 2.6 50.5 22.9 56.5 49.6zm86-22h-36.6c-22.5 0-41 18.5-41 41v14.9h118.5v-14.9c.1-22.5-18.3-41-40.9-41z"/></svg>