<svg id="Layer_1" enable-background="new 0 0 512 512" height="512" viewBox="0 0 512 512" width="512" xmlns="http://www.w3.org/2000/svg"><path clip-rule="evenodd" d="m182.71 253.066c0 40.494 32.795 73.289 73.29 73.289s73.29-32.794 73.29-73.289zm307.079-51.811h-121.882c-5.638-19.338-16.084-36.434-29.86-50.061 16.588-18.836 40.882-30.721 67.953-30.721 44.505 0 81.506 32.119 89.095 74.441.596 3.323-1.929 6.341-5.306 6.341zm6.211 51.811v32.479l-39.771 15.308c-5.043 21.191-13.444 41.429-24.865 59.977l17.31 38.974-45.934 45.935-38.962-17.305c-18.55 11.425-38.797 19.826-59.993 24.869l-15.305 39.762h-64.96l-15.309-39.771c-21.191-5.043-41.429-13.444-59.977-24.865l-38.974 17.31-45.935-45.934 17.305-38.962c-11.426-18.55-19.826-38.798-24.87-59.993l-39.76-15.304v-32.48h126.71c0 62.573 50.716 113.289 113.289 113.289s113.29-50.715 113.29-113.289zm-239.998-231.338c28.085 0 50.852 22.768 50.852 50.852s-22.768 50.852-50.852 50.852c-28.085 0-50.853-22.768-50.853-50.852s22.767-50.852 50.853-50.852zm-93.097 201.461 186.191-.001c3.752 0 6.557-3.353 5.896-7.046-8.516-47.48-50.004-82.709-98.991-82.709-49.449 0-90.559 35.687-98.991 82.709-.662 3.694 2.143 7.047 5.895 7.047zm-56.904-204.254c25.277 0 45.769 20.491 45.769 45.769 0 25.277-20.492 45.769-45.769 45.769-25.278 0-45.769-20.492-45.769-45.769 0-25.278 20.491-45.769 45.769-45.769zm-83.789 182.32c-3.377 0-5.902-3.018-5.306-6.342 7.589-42.322 44.59-74.441 89.095-74.441 27.072 0 51.365 11.885 67.953 30.721-13.777 13.627-24.223 30.723-29.861 50.061zm383.789-182.32c25.277 0 45.769 20.491 45.769 45.769 0 25.277-20.492 45.769-45.769 45.769-25.278 0-45.769-20.492-45.769-45.769 0-25.278 20.492-45.769 45.769-45.769z" fill-rule="evenodd"/></svg>